HIERARCHY
ROOT Hips
{
	OFFSET 0.00000 0.00000 0.00000
	CHANNELS 6 Xposition Yposition Zposition Zrotation Yrotation Xrotation 
	JOINT LHipJoint
	{
		OFFSET 0 0 0
		CHANNELS 3 Zrotation Yrotation Xrotation
		JOINT LeftUpLeg
		{
			OFFSET 3.13874 -1.57224 1.49786
			CHANNELS 3 Zrotation Yrotation Xrotation
			JOINT LeftLeg
			{
				OFFSET 2.10955 -5.79594 0.00000
				CHANNELS 3 Zrotation Yrotation Xrotation
				JOINT LeftFoot
				{
					OFFSET 2.41843 -6.64458 0.00000
					CHANNELS 3 Zrotation Yrotation Xrotation
					JOINT LeftToeBase
					{
						OFFSET 0.04713 -0.12948 1.66229
						CHANNELS 3 Zrotation Yrotation Xrotation
						End Site
						{
							OFFSET 0.00000 -0.00000 0.85167
						}
					}
				}
			}
		}
	}
	JOINT RHipJoint
	{
		OFFSET 0 0 0
		CHANNELS 3 Zrotation Yrotation Xrotation
		JOINT RightUpLeg
		{
			OFFSET -3.13988 -1.57224 1.49786
			CHANNELS 3 Zrotation Yrotation Xrotation
			JOINT RightLeg
			{
				OFFSET -2.15006 -5.90725 0.00000
				CHANNELS 3 Zrotation Yrotation Xrotation
				JOINT RightFoot
				{
					OFFSET -2.34496 -6.44273 0.00000
					CHANNELS 3 Zrotation Yrotation Xrotation
					JOINT RightToeBase
					{
						OFFSET -0.08699 -0.23900 1.55223
						CHANNELS 3 Zrotation Yrotation Xrotation
						End Site
						{
							OFFSET -0.00000 -0.00000 0.80281
						}
					}
				}
			}
		}
	}
	JOINT LowerBack
	{
		OFFSET 0 0 0
		CHANNELS 3 Zrotation Yrotation Xrotation
		JOINT Spine
		{
			OFFSET 0.01292 1.96517 -0.16495
			CHANNELS 3 Zrotation Yrotation Xrotation
			JOINT Spine1
			{
				OFFSET 0.02122 1.88666 0.19706
				CHANNELS 3 Zrotation Yrotation Xrotation
				JOINT Neck
				{
					OFFSET 0 0 0
					CHANNELS 3 Zrotation Yrotation Xrotation
					JOINT Neck1
					{
						OFFSET -0.01683 1.81591 0.07903
						CHANNELS 3 Zrotation Yrotation Xrotation
						JOINT Head
						{
							OFFSET 0.00815 1.74013 -0.47700
							CHANNELS 3 Zrotation Yrotation Xrotation
							End Site
							{
								OFFSET -0.00204 1.83225 -0.16933
							}
						}
					}
				}
				JOINT LeftShoulder
				{
					OFFSET 0 0 0
					CHANNELS 3 Zrotation Yrotation Xrotation
					JOINT LeftArm
					{
						OFFSET 3.38482 1.41533 0.19802
						CHANNELS 3 Zrotation Yrotation Xrotation
						JOINT LeftForeArm
						{
							OFFSET 4.32712 -0.00000 0.00000
							CHANNELS 3 Zrotation Yrotation Xrotation
							JOINT LeftHand
							{
								OFFSET 3.28587 -0.00000 -0.00000
								CHANNELS 3 Zrotation Yrotation Xrotation
								JOINT LeftFingerBase
								{
									OFFSET 0 0 0
									CHANNELS 3 Zrotation Yrotation Xrotation
									JOINT LeftHandIndex1
									{
										OFFSET 0.43316 -0.00000 -0.00000
										CHANNELS 3 Zrotation Yrotation Xrotation
										End Site
										{
											OFFSET 0.34922 -0.00000 -0.00000
										}
									}
								}
								JOINT LThumb
								{
									OFFSET 0 0 0
									CHANNELS 3 Zrotation Yrotation Xrotation
									End Site
									{
										OFFSET 0.35456 -0.00000 0.35456
									}
								}
							}
						}
					}
				}
				JOINT RightShoulder
				{
					OFFSET 0 0 0
					CHANNELS 3 Zrotation Yrotation Xrotation
					JOINT RightArm
					{
						OFFSET -3.09725 1.62858 -0.14144
						CHANNELS 3 Zrotation Yrotation Xrotation
						JOINT RightForeArm
						{
							OFFSET -4.29104 -0.00000 0.00000
							CHANNELS 3 Zrotation Yrotation Xrotation
							JOINT RightHand
							{
								OFFSET -3.22720 -0.00000 -0.00000
								CHANNELS 3 Zrotation Yrotation Xrotation
								JOINT RightFingerBase
								{
									OFFSET 0 0 0
									CHANNELS 3 Zrotation Yrotation Xrotation
									JOINT RightHandIndex1
									{
										OFFSET -0.54362 -0.00000 -0.00000
										CHANNELS 3 Zrotation Yrotation Xrotation
										End Site
										{
											OFFSET -0.43828 -0.00000 -0.00000
										}
									}
								}
								JOINT RThumb
								{
									OFFSET 0 0 0
									CHANNELS 3 Zrotation Yrotation Xrotation
									End Site
									{
										OFFSET -0.44497 -0.00000 0.44497
									}
								}
							}
						}
					}
				}
			}
		}
	}
}
MOTION
Frames: 6
Frame Time: 0.04
0.00 0.00 0.00 186.1990 -36.5714 -170.1080 0.0000 0.0000 0.0000 8.0021 -40.1479 -37.6352 16.4006 19.6865 79.4230 0.4219 -27.4290 -21.8374 5.0603 -13.4514 -41.0827 0.0000 0.0000 0.0000 25.5738 23.1418 -41.5846 -11.8750 -18.3373 65.5922 -4.7851 -6.3041 -43.7751 -1.2563 7.1057 -20.0289 1.3244 9.5129 17.1392 -7.3217 11.8388 -9.7673 -12.8313 4.2939 -18.7499 2.2305 1.0443 -14.6591 -1.0522 0.7056 24.1448 -0.6894 0.2232 10.1262 -0.0000 0.0000 0.0000 -64.9449 15.9644 -20.8911 112.2042 -58.0526 -79.1036 -0.0000 0.0000 -1.0384 64.9439 30.5021 47.3531 -7.1250 0.0000 -0.0000 74.8884 72.7768 56.8578 -0.0000 0.0000 0.0000 63.6551 14.4825 29.6107 -86.5214 59.9542 -56.9879 0.0000 -0.0000 -6.9775 -47.8126 -6.8943 7.5445 7.1250 -0.0000 -0.0000 -18.3154 -39.5134 -2.5776
0.00 0.00 0.00 185.5020 -28.9582 -170.2430 0.0000 0.0000 0.0000 0.6973 -38.2573 -27.8381 15.5615 19.5210 76.9223 2.8623 -29.8960 -34.7142 6.4918 -14.8885 -46.9249 0.0000 0.0000 0.0000 24.4161 25.8224 -41.8608 -12.1477 -18.4524 66.4562 -4.3664 -5.0492 -41.4475 -1.3593 7.3797 -20.8452 0.5286 11.5671 17.9867 -8.0199 14.2777 -9.8623 -14.0722 5.3838 -18.9040 2.3520 1.3610 -15.0193 -1.0674 1.1357 23.8905 -0.6561 0.4373 10.1130 0.0000 -0.0000 0.0000 -64.5695 23.3516 -26.0430 108.2518 -58.7031 -75.7377 -0.0000 0.0000 -0.9321 66.4114 29.8360 48.7279 -7.1250 0.0000 -0.0000 78.4374 72.1491 59.5174 0.0000 -0.0000 0.0000 64.4349 22.9095 34.3258 -78.9472 59.5333 -50.4430 0.0000 -0.0000 -6.5979 -47.5355 -6.2379 6.7708 7.1250 -0.0000 -0.0000 -17.8984 -38.5651 -2.9495
0.00 0.00 0.00 207.9560 -57.5886 -190.2230 0.0000 0.0000 0.0000 26.6416 -36.4763 -52.1897 13.2399 18.8671 69.8689 0.1529 -28.3581 -20.9384 5.4007 -13.8213 -42.5264 0.0000 0.0000 0.0000 33.4902 18.5043 -32.9526 -10.4992 -17.6812 61.1441 -4.4496 -3.9293 -41.3975 -4.1919 12.4115 -37.2036 -5.3883 -1.2918 21.0590 4.7951 -2.6140 -7.1365 9.5548 -0.0735 -19.5313 10.9665 4.9190 -14.3501 -4.8558 4.8520 23.6048 -2.9530 2.4655 10.3341 0.0000 -0.0000 0.0000 -68.4633 -21.1207 -0.9300 102.4914 -59.4021 -70.7961 -0.0000 -0.0000 6.0683 59.6110 29.3033 39.8479 -7.1250 0.0000 -0.0000 54.1329 71.4166 37.1595 0.0000 -0.0000 0.0000 57.4946 -26.2463 17.4472 -94.4083 59.9264 -63.8167 0.0000 -0.0000 -12.1731 -46.7098 -6.4136 6.7625 7.1250 -0.0000 -0.0000 -17.2188 -38.7224 -2.7598
0.00 0.00 0.00 180.5820 -23.8462 -178.4220 0.0000 0.0000 0.0000 -20.7055 -15.7816 -11.4307 7.1633 15.4679 49.4894 4.1397 -24.2907 -38.3695 4.5506 -12.8591 -38.8431 0.0000 0.0000 0.0000 12.6322 13.5981 -29.1711 -7.1796 -15.4813 49.5505 -1.7920 -8.9872 -29.8817 -1.0575 6.5384 -18.3549 2.1248 7.4231 18.5345 -9.9084 8.3813 -7.5108 -15.1613 2.5142 -17.0358 8.9934 4.0513 -11.2015 2.3080 1.8456 27.4945 -0.5498 1.5707 10.8597 0.0000 -0.0000 0.0000 -60.8046 8.4186 -1.9044 113.4373 -57.8191 -80.1487 -0.0000 -0.0000 0.9943 60.2793 26.5566 38.0667 -7.1250 0.0000 -0.0000 51.1535 68.7568 32.0643 0.0000 -0.0000 0.0000 76.3183 -4.9693 23.2781 -77.1903 59.3708 -48.9299 0.0000 -0.0000 -10.4728 -47.6681 -5.9234 6.4633 7.1250 -0.0000 -0.0000 -17.9325 -38.1387 -3.1516
0.00 0.00 0.00 177.2200 -10.1555 -177.8660 0.0000 0.0000 0.0000 -27.0839 -0.6077 -4.5253 2.6769 10.1528 29.4728 3.9921 -20.5717 -36.9994 4.6535 -12.9827 -39.3036 0.0000 0.0000 0.0000 8.1800 11.8846 -26.0874 -2.9491 -10.6122 30.9829 -0.1808 -12.8580 -20.3736 -0.2489 3.2100 -8.8639 1.1997 9.4595 14.5968 -8.5697 11.1436 -9.3781 -13.7971 3.8738 -16.9325 6.8012 5.4374 -10.9659 -2.4005 5.6397 28.4815 -1.4102 2.4788 11.3352 -0.0000 0.0000 0.0000 -56.1979 17.2632 -23.4565 116.2017 -57.2399 -82.4811 -0.0000 0.0000 -0.1415 62.4076 29.2883 43.1086 -7.1250 0.0000 -0.0000 62.9423 71.7833 44.8818 -0.0000 0.0000 0.0000 71.6511 3.9758 35.1786 -73.5230 58.9489 -45.7809 0.0000 -0.0000 -7.9533 -46.7060 -6.3498 6.6952 7.1250 -0.0000 -0.0000 -17.2001 -38.6339 -2.7955
0.00 0.00 0.00 205.3190 -38.4683 -192.0130 0.0000 0.0000 0.0000 -0.9858 -24.5036 -12.5600 4.2700 12.5113 37.5656 1.5383 -20.8157 -24.8688 3.6716 -11.7100 -34.7138 0.0000 0.0000 0.0000 27.2677 15.5114 -5.3518 -0.5015 -4.5397 12.6002 2.7961 -28.3428 -15.9803 -0.0175 -0.8530 2.3443 2.1245 -2.3886 16.0022 7.4540 -2.2308 -8.9745 8.5695 -0.7533 -19.5083 9.3794 6.5210 -12.3112 -9.7043 8.6795 26.7843 -4.0730 3.2831 11.6257 0.0000 -0.0000 0.0000 -69.5297 -15.5790 0.0408 114.4139 -57.6235 -80.9743 -0.0000 -0.0000 7.4931 60.9128 28.7968 40.8896 -7.1250 0.0000 -0.0000 57.1035 71.1427 39.2686 0.0000 -0.0000 0.0000 57.4213 -28.8355 13.7583 -93.0766 59.9642 -62.6641 0.0000 -0.0000 -14.2438 -45.6862 -5.5818 5.6893 7.1250 -0.0000 -0.0000 -16.1392 -37.4823 -3.0838
